<mxfile host="app.diagrams.net" modified="2023-04-11T10:03:14.672Z" agent="Mozilla/5.0 (Windows NT 10.0; Win64; x64) AppleWebKit/537.36 (KHTML, like Gecko) Chrome/112.0.0.0 Safari/537.36 Edg/112.0.1722.39" etag="PmaAAHZNfl-2IHzxnhbf" version="21.1.5" type="github">
  <diagram id="R2lEEEUBdFMjLlhIrx00" name="Page-1">
    <mxGraphModel dx="823" dy="1584" grid="1" gridSize="10" guides="1" tooltips="1" connect="1" arrows="1" fold="1" page="1" pageScale="1" pageWidth="850" pageHeight="1100" math="0" shadow="0" extFonts="Permanent Marker^https://fonts.googleapis.com/css?family=Permanent+Marker">
      <root>
        <mxCell id="0" />
        <mxCell id="1" parent="0" />
        <mxCell id="QSl6iMokwTdBmVvLgoSX-7" value="" style="group" vertex="1" connectable="0" parent="1">
          <mxGeometry x="500" y="340" width="165" height="60" as="geometry" />
        </mxCell>
        <mxCell id="QSl6iMokwTdBmVvLgoSX-8" value="" style="ellipse;whiteSpace=wrap;html=1;fillColor=#e1d5e7;strokeColor=#9673a6;" vertex="1" parent="QSl6iMokwTdBmVvLgoSX-7">
          <mxGeometry x="5" width="160" height="60" as="geometry" />
        </mxCell>
        <mxCell id="QSl6iMokwTdBmVvLgoSX-9" value="Manufacture" style="text;strokeColor=none;align=center;fillColor=none;html=1;verticalAlign=middle;whiteSpace=wrap;rounded=0;" vertex="1" parent="QSl6iMokwTdBmVvLgoSX-7">
          <mxGeometry y="13.75" width="165" height="32.5" as="geometry" />
        </mxCell>
        <mxCell id="QSl6iMokwTdBmVvLgoSX-10" value="" style="group" vertex="1" connectable="0" parent="1">
          <mxGeometry x="190" y="310" width="165" height="60" as="geometry" />
        </mxCell>
        <mxCell id="QSl6iMokwTdBmVvLgoSX-11" value="" style="ellipse;whiteSpace=wrap;html=1;fillColor=#e1d5e7;strokeColor=#9673a6;" vertex="1" parent="QSl6iMokwTdBmVvLgoSX-10">
          <mxGeometry x="5" width="160" height="60" as="geometry" />
        </mxCell>
        <mxCell id="QSl6iMokwTdBmVvLgoSX-12" value=" Car for sale" style="text;strokeColor=none;align=center;fillColor=none;html=1;verticalAlign=middle;whiteSpace=wrap;rounded=0;" vertex="1" parent="QSl6iMokwTdBmVvLgoSX-10">
          <mxGeometry y="13.75" width="165" height="32.5" as="geometry" />
        </mxCell>
        <mxCell id="QSl6iMokwTdBmVvLgoSX-13" value="" style="group" vertex="1" connectable="0" parent="1">
          <mxGeometry x="500" y="-80" width="165" height="60" as="geometry" />
        </mxCell>
        <mxCell id="QSl6iMokwTdBmVvLgoSX-14" value="" style="ellipse;whiteSpace=wrap;html=1;fillColor=#e1d5e7;strokeColor=#9673a6;" vertex="1" parent="QSl6iMokwTdBmVvLgoSX-13">
          <mxGeometry x="5" width="160" height="60" as="geometry" />
        </mxCell>
        <mxCell id="QSl6iMokwTdBmVvLgoSX-15" value=" Car feature" style="text;strokeColor=none;align=center;fillColor=none;html=1;verticalAlign=middle;whiteSpace=wrap;rounded=0;" vertex="1" parent="QSl6iMokwTdBmVvLgoSX-13">
          <mxGeometry y="13.75" width="165" height="32.5" as="geometry" />
        </mxCell>
        <mxCell id="QSl6iMokwTdBmVvLgoSX-16" value="" style="group" vertex="1" connectable="0" parent="1">
          <mxGeometry x="600" y="220" width="165" height="60" as="geometry" />
        </mxCell>
        <mxCell id="QSl6iMokwTdBmVvLgoSX-17" value="" style="ellipse;whiteSpace=wrap;html=1;fillColor=#e1d5e7;strokeColor=#9673a6;" vertex="1" parent="QSl6iMokwTdBmVvLgoSX-16">
          <mxGeometry x="5" width="160" height="60" as="geometry" />
        </mxCell>
        <mxCell id="QSl6iMokwTdBmVvLgoSX-18" value=" Customer" style="text;strokeColor=none;align=center;fillColor=none;html=1;verticalAlign=middle;whiteSpace=wrap;rounded=0;" vertex="1" parent="QSl6iMokwTdBmVvLgoSX-16">
          <mxGeometry y="13.75" width="165" height="32.5" as="geometry" />
        </mxCell>
        <mxCell id="QSl6iMokwTdBmVvLgoSX-19" value="" style="group" vertex="1" connectable="0" parent="1">
          <mxGeometry x="290" y="220" width="165" height="60" as="geometry" />
        </mxCell>
        <mxCell id="QSl6iMokwTdBmVvLgoSX-20" value="" style="ellipse;whiteSpace=wrap;html=1;fillColor=#e1d5e7;strokeColor=#9673a6;" vertex="1" parent="QSl6iMokwTdBmVvLgoSX-19">
          <mxGeometry x="5" width="160" height="60" as="geometry" />
        </mxCell>
        <mxCell id="QSl6iMokwTdBmVvLgoSX-21" value="  Car sold" style="text;strokeColor=none;align=center;fillColor=none;html=1;verticalAlign=middle;whiteSpace=wrap;rounded=0;" vertex="1" parent="QSl6iMokwTdBmVvLgoSX-19">
          <mxGeometry y="13.75" width="165" height="32.5" as="geometry" />
        </mxCell>
        <mxCell id="QSl6iMokwTdBmVvLgoSX-23" value="" style="group" vertex="1" connectable="0" parent="1">
          <mxGeometry x="700" y="-110" width="165" height="60" as="geometry" />
        </mxCell>
        <mxCell id="QSl6iMokwTdBmVvLgoSX-24" value="" style="ellipse;whiteSpace=wrap;html=1;fillColor=#e1d5e7;strokeColor=#9673a6;" vertex="1" parent="QSl6iMokwTdBmVvLgoSX-23">
          <mxGeometry x="5" width="160" height="60" as="geometry" />
        </mxCell>
        <mxCell id="QSl6iMokwTdBmVvLgoSX-25" value="    Customer payment" style="text;strokeColor=none;align=center;fillColor=none;html=1;verticalAlign=middle;whiteSpace=wrap;rounded=0;" vertex="1" parent="QSl6iMokwTdBmVvLgoSX-23">
          <mxGeometry y="13.75" width="165" height="32.5" as="geometry" />
        </mxCell>
        <mxCell id="QSl6iMokwTdBmVvLgoSX-27" value="Car" style="rounded=0;whiteSpace=wrap;html=1;" vertex="1" parent="1">
          <mxGeometry x="90" y="120" width="130" height="50" as="geometry" />
        </mxCell>
        <mxCell id="QSl6iMokwTdBmVvLgoSX-5" value="Car model" style="ellipse;whiteSpace=wrap;html=1;fillColor=#e1d5e7;strokeColor=#9673a6;container=0;" vertex="1" parent="1">
          <mxGeometry x="170" y="30" width="100" height="50" as="geometry" />
        </mxCell>
        <mxCell id="QSl6iMokwTdBmVvLgoSX-28" value="" style="endArrow=none;html=1;rounded=0;entryX=0.573;entryY=0.98;entryDx=0;entryDy=0;entryPerimeter=0;" edge="1" parent="1" target="QSl6iMokwTdBmVvLgoSX-5">
          <mxGeometry width="50" height="50" relative="1" as="geometry">
            <mxPoint x="180" y="120" as="sourcePoint" />
            <mxPoint x="220" y="80" as="targetPoint" />
          </mxGeometry>
        </mxCell>
        <mxCell id="QSl6iMokwTdBmVvLgoSX-1" value="Vehicle" style="ellipse;whiteSpace=wrap;html=1;fillColor=#e1d5e7;strokeColor=#9673a6;" vertex="1" parent="1">
          <mxGeometry x="60" y="30" width="100" height="50" as="geometry" />
        </mxCell>
        <mxCell id="QSl6iMokwTdBmVvLgoSX-29" value="" style="endArrow=none;html=1;rounded=0;entryX=0.573;entryY=0.98;entryDx=0;entryDy=0;entryPerimeter=0;exitX=0.5;exitY=0;exitDx=0;exitDy=0;" edge="1" parent="1" source="QSl6iMokwTdBmVvLgoSX-27">
          <mxGeometry width="50" height="50" relative="1" as="geometry">
            <mxPoint x="70" y="120" as="sourcePoint" />
            <mxPoint x="123" y="79" as="targetPoint" />
          </mxGeometry>
        </mxCell>
        <mxCell id="QSl6iMokwTdBmVvLgoSX-30" value="" style="ellipse;whiteSpace=wrap;html=1;fillColor=#e1d5e7;strokeColor=#9673a6;container=0;" vertex="1" parent="1">
          <mxGeometry x="260" y="70" width="110" height="50" as="geometry" />
        </mxCell>
        <mxCell id="QSl6iMokwTdBmVvLgoSX-32" value="" style="shape=table;startSize=0;container=1;collapsible=1;childLayout=tableLayout;fixedRows=1;rowLines=0;fontStyle=0;align=center;resizeLast=1;strokeColor=none;fillColor=none;collapsible=0;" vertex="1" parent="1">
          <mxGeometry x="280" y="80" width="70" height="30" as="geometry" />
        </mxCell>
        <mxCell id="QSl6iMokwTdBmVvLgoSX-33" value="" style="shape=tableRow;horizontal=0;startSize=0;swimlaneHead=0;swimlaneBody=0;fillColor=none;collapsible=0;dropTarget=0;points=[[0,0.5],[1,0.5]];portConstraint=eastwest;top=0;left=0;right=0;bottom=1;" vertex="1" parent="QSl6iMokwTdBmVvLgoSX-32">
          <mxGeometry width="70" height="30" as="geometry" />
        </mxCell>
        <mxCell id="QSl6iMokwTdBmVvLgoSX-34" value="PK" style="shape=partialRectangle;connectable=0;fillColor=none;top=0;left=0;bottom=0;right=0;fontStyle=1;overflow=hidden;whiteSpace=wrap;html=1;" vertex="1" parent="QSl6iMokwTdBmVvLgoSX-33">
          <mxGeometry width="30" height="30" as="geometry">
            <mxRectangle width="30" height="30" as="alternateBounds" />
          </mxGeometry>
        </mxCell>
        <mxCell id="QSl6iMokwTdBmVvLgoSX-35" value="Code" style="shape=partialRectangle;connectable=0;fillColor=none;top=0;left=0;bottom=0;right=0;align=left;spacingLeft=6;fontStyle=5;overflow=hidden;whiteSpace=wrap;html=1;" vertex="1" parent="QSl6iMokwTdBmVvLgoSX-33">
          <mxGeometry x="30" width="40" height="30" as="geometry">
            <mxRectangle width="40" height="30" as="alternateBounds" />
          </mxGeometry>
        </mxCell>
        <mxCell id="QSl6iMokwTdBmVvLgoSX-36" value="" style="endArrow=none;html=1;rounded=0;exitX=1;exitY=0.5;exitDx=0;exitDy=0;" edge="1" parent="1" source="QSl6iMokwTdBmVvLgoSX-27">
          <mxGeometry width="50" height="50" relative="1" as="geometry">
            <mxPoint x="220" y="150.5" as="sourcePoint" />
            <mxPoint x="270" y="110" as="targetPoint" />
          </mxGeometry>
        </mxCell>
        <mxCell id="QSl6iMokwTdBmVvLgoSX-38" value="Customer" style="rounded=0;whiteSpace=wrap;html=1;" vertex="1" parent="1">
          <mxGeometry x="480" y="100" width="130" height="50" as="geometry" />
        </mxCell>
        <mxCell id="QSl6iMokwTdBmVvLgoSX-39" value="" style="endArrow=none;html=1;rounded=0;entryX=0.57;entryY=1;entryDx=0;entryDy=0;entryPerimeter=0;exitX=0.077;exitY=0;exitDx=0;exitDy=0;exitPerimeter=0;" edge="1" parent="1" source="QSl6iMokwTdBmVvLgoSX-38" target="QSl6iMokwTdBmVvLgoSX-48">
          <mxGeometry width="50" height="50" relative="1" as="geometry">
            <mxPoint x="490" y="90" as="sourcePoint" />
            <mxPoint x="470" y="70" as="targetPoint" />
          </mxGeometry>
        </mxCell>
        <mxCell id="QSl6iMokwTdBmVvLgoSX-48" value="" style="ellipse;whiteSpace=wrap;html=1;fillColor=#e1d5e7;strokeColor=#9673a6;container=0;" vertex="1" parent="1">
          <mxGeometry x="410" y="20" width="100" height="50" as="geometry" />
        </mxCell>
        <mxCell id="QSl6iMokwTdBmVvLgoSX-49" value="" style="shape=table;startSize=0;container=1;collapsible=1;childLayout=tableLayout;fixedRows=1;rowLines=0;fontStyle=0;align=center;resizeLast=1;strokeColor=none;fillColor=none;collapsible=0;" vertex="1" parent="1">
          <mxGeometry x="420" y="30" width="80" height="30" as="geometry" />
        </mxCell>
        <mxCell id="QSl6iMokwTdBmVvLgoSX-50" value="" style="shape=tableRow;horizontal=0;startSize=0;swimlaneHead=0;swimlaneBody=0;fillColor=none;collapsible=0;dropTarget=0;points=[[0,0.5],[1,0.5]];portConstraint=eastwest;top=0;left=0;right=0;bottom=1;" vertex="1" parent="QSl6iMokwTdBmVvLgoSX-49">
          <mxGeometry width="80" height="30" as="geometry" />
        </mxCell>
        <mxCell id="QSl6iMokwTdBmVvLgoSX-51" value="PK" style="shape=partialRectangle;connectable=0;fillColor=none;top=0;left=0;bottom=0;right=0;fontStyle=1;overflow=hidden;whiteSpace=wrap;html=1;" vertex="1" parent="QSl6iMokwTdBmVvLgoSX-50">
          <mxGeometry width="30" height="30" as="geometry">
            <mxRectangle width="30" height="30" as="alternateBounds" />
          </mxGeometry>
        </mxCell>
        <mxCell id="QSl6iMokwTdBmVvLgoSX-52" value="Cust ID" style="shape=partialRectangle;connectable=0;fillColor=none;top=0;left=0;bottom=0;right=0;align=left;spacingLeft=6;fontStyle=5;overflow=hidden;whiteSpace=wrap;html=1;" vertex="1" parent="QSl6iMokwTdBmVvLgoSX-50">
          <mxGeometry x="30" width="50" height="30" as="geometry">
            <mxRectangle width="50" height="30" as="alternateBounds" />
          </mxGeometry>
        </mxCell>
        <mxCell id="QSl6iMokwTdBmVvLgoSX-53" value="Name" style="ellipse;whiteSpace=wrap;html=1;fillColor=#e1d5e7;strokeColor=#9673a6;container=0;" vertex="1" parent="1">
          <mxGeometry x="520" y="20" width="90" height="50" as="geometry" />
        </mxCell>
        <mxCell id="QSl6iMokwTdBmVvLgoSX-55" value="phone" style="ellipse;whiteSpace=wrap;html=1;fillColor=#e1d5e7;strokeColor=#9673a6;container=0;" vertex="1" parent="1">
          <mxGeometry x="620" y="30" width="90" height="50" as="geometry" />
        </mxCell>
        <mxCell id="QSl6iMokwTdBmVvLgoSX-56" value="Adress" style="ellipse;whiteSpace=wrap;html=1;fillColor=#e1d5e7;strokeColor=#9673a6;container=0;" vertex="1" parent="1">
          <mxGeometry x="640" y="90" width="100" height="50" as="geometry" />
        </mxCell>
        <mxCell id="QSl6iMokwTdBmVvLgoSX-57" value="" style="endArrow=none;html=1;rounded=0;exitX=0.308;exitY=0;exitDx=0;exitDy=0;exitPerimeter=0;entryX=0.422;entryY=0.98;entryDx=0;entryDy=0;entryPerimeter=0;" edge="1" parent="1" source="QSl6iMokwTdBmVvLgoSX-38" target="QSl6iMokwTdBmVvLgoSX-53">
          <mxGeometry width="50" height="50" relative="1" as="geometry">
            <mxPoint x="500" y="110" as="sourcePoint" />
            <mxPoint x="550" y="70" as="targetPoint" />
          </mxGeometry>
        </mxCell>
        <mxCell id="QSl6iMokwTdBmVvLgoSX-58" value="" style="endArrow=none;html=1;rounded=0;exitX=0.75;exitY=0;exitDx=0;exitDy=0;entryX=0;entryY=1;entryDx=0;entryDy=0;" edge="1" parent="1" source="QSl6iMokwTdBmVvLgoSX-38" target="QSl6iMokwTdBmVvLgoSX-55">
          <mxGeometry width="50" height="50" relative="1" as="geometry">
            <mxPoint x="510" y="120" as="sourcePoint" />
            <mxPoint x="570" y="90" as="targetPoint" />
          </mxGeometry>
        </mxCell>
        <mxCell id="QSl6iMokwTdBmVvLgoSX-59" value="" style="endArrow=none;html=1;rounded=0;exitX=0.75;exitY=0;exitDx=0;exitDy=0;entryX=0.02;entryY=0.64;entryDx=0;entryDy=0;entryPerimeter=0;" edge="1" parent="1" target="QSl6iMokwTdBmVvLgoSX-56">
          <mxGeometry width="50" height="50" relative="1" as="geometry">
            <mxPoint x="610" y="128.5" as="sourcePoint" />
            <mxPoint x="665" y="101.5" as="targetPoint" />
          </mxGeometry>
        </mxCell>
      </root>
    </mxGraphModel>
  </diagram>
</mxfile>
